<?xml version="1.0" encoding="UTF-8"?>
<svg id="Ebene_2" xmlns="http://www.w3.org/2000/svg" viewBox="0 0 198.44 245.76">
  <defs>
    <style>
      .cls-1 {
        fill: #fff;
      }
    </style>
  </defs>
  <g id="design">
    <path class="cls-1" d="M100.23,122.88s42.35,1.48,78.07-39.57c0,0,8.53,21.56,9.11,41.06,1.08,35.92-13.48,100.69-66.32,101.06-52.84.36-44.27-60.49-20.86-92.92H.11s-7.47,113.26,100.12,113.26,97.99-121.39,97.99-121.39c0,0,.22-124.36-97.99-124.36S0,59.72,0,65.81C0,82.23,6.13,122.88,100.23,122.88ZM113.67,34.42c44.62.67,60.28,38.48,60.28,38.48-49.28,39.41-97.53,17.67-97.53-10.96s37.25-27.52,37.25-27.52Z"/>
  </g>
</svg>